<mxfile host="app.diagrams.net" modified="2022-05-16T03:17:25.306Z" agent="5.0 (Windows NT 6.1; Win64; x64) AppleWebKit/537.36 (KHTML, like Gecko) Chrome/101.0.4951.54 Safari/537.36 Edg/101.0.1210.39" etag="ugFbrWHcV85Ff9iD-yne" version="18.0.1" type="github">
  <diagram id="rywNI7eLAIcjOMfBIOoY" name="Page-1">
    <mxGraphModel dx="1422" dy="794" grid="1" gridSize="10" guides="1" tooltips="1" connect="1" arrows="1" fold="1" page="1" pageScale="1" pageWidth="850" pageHeight="1100" math="0" shadow="0">
      <root>
        <mxCell id="0" />
        <mxCell id="1" parent="0" />
        <mxCell id="4WjZfDwvEFTE9s6ujMB4-1" value="" style="swimlane;startSize=0;" parent="1" vertex="1">
          <mxGeometry x="140" y="110" width="460" height="500" as="geometry" />
        </mxCell>
        <mxCell id="4WjZfDwvEFTE9s6ujMB4-10" value="Plain text" style="text;html=1;strokeColor=none;fillColor=none;align=center;verticalAlign=middle;whiteSpace=wrap;rounded=0;" parent="4WjZfDwvEFTE9s6ujMB4-1" vertex="1">
          <mxGeometry x="90" y="70" width="60" height="30" as="geometry" />
        </mxCell>
        <mxCell id="4WjZfDwvEFTE9s6ujMB4-11" value="SHA256/384/512" style="text;html=1;strokeColor=none;fillColor=none;align=center;verticalAlign=middle;whiteSpace=wrap;rounded=0;" parent="4WjZfDwvEFTE9s6ujMB4-1" vertex="1">
          <mxGeometry x="320" y="70" width="60" height="30" as="geometry" />
        </mxCell>
        <mxCell id="4WjZfDwvEFTE9s6ujMB4-12" value="AES-256 CBC/GCM" style="text;html=1;strokeColor=none;fillColor=none;align=center;verticalAlign=middle;whiteSpace=wrap;rounded=0;" parent="4WjZfDwvEFTE9s6ujMB4-1" vertex="1">
          <mxGeometry x="90" y="235" width="60" height="30" as="geometry" />
        </mxCell>
        <mxCell id="4WjZfDwvEFTE9s6ujMB4-13" value="HMAC-MD5/SHA1/SHA256" style="text;html=1;strokeColor=none;fillColor=none;align=center;verticalAlign=middle;whiteSpace=wrap;rounded=0;" parent="4WjZfDwvEFTE9s6ujMB4-1" vertex="1">
          <mxGeometry x="320" y="235" width="60" height="30" as="geometry" />
        </mxCell>
        <mxCell id="4WjZfDwvEFTE9s6ujMB4-14" value="Digital signature" style="text;html=1;strokeColor=none;fillColor=none;align=center;verticalAlign=middle;whiteSpace=wrap;rounded=0;" parent="4WjZfDwvEFTE9s6ujMB4-1" vertex="1">
          <mxGeometry x="255" y="350" width="60" height="30" as="geometry" />
        </mxCell>
        <mxCell id="4WjZfDwvEFTE9s6ujMB4-16" value="For key exchange" style="text;html=1;strokeColor=none;fillColor=none;align=center;verticalAlign=middle;whiteSpace=wrap;rounded=0;" parent="4WjZfDwvEFTE9s6ujMB4-1" vertex="1">
          <mxGeometry x="10" y="350" width="60" height="30" as="geometry" />
        </mxCell>
        <mxCell id="4WjZfDwvEFTE9s6ujMB4-17" value="Data integrity" style="text;html=1;strokeColor=none;fillColor=none;align=center;verticalAlign=middle;whiteSpace=wrap;rounded=0;" parent="4WjZfDwvEFTE9s6ujMB4-1" vertex="1">
          <mxGeometry x="350" y="120" width="100" height="30" as="geometry" />
        </mxCell>
        <mxCell id="4WjZfDwvEFTE9s6ujMB4-18" value="Password verification" style="text;html=1;strokeColor=none;fillColor=none;align=center;verticalAlign=middle;whiteSpace=wrap;rounded=0;" parent="4WjZfDwvEFTE9s6ujMB4-1" vertex="1">
          <mxGeometry x="240" y="10" width="110" height="30" as="geometry" />
        </mxCell>
        <mxCell id="4WjZfDwvEFTE9s6ujMB4-19" value="Protect data" style="text;html=1;strokeColor=none;fillColor=none;align=center;verticalAlign=middle;whiteSpace=wrap;rounded=0;" parent="4WjZfDwvEFTE9s6ujMB4-1" vertex="1">
          <mxGeometry x="10" y="180" width="80" height="30" as="geometry" />
        </mxCell>
        <mxCell id="4WjZfDwvEFTE9s6ujMB4-20" value="Data integrity with secret key verification" style="text;html=1;strokeColor=none;fillColor=none;align=center;verticalAlign=middle;whiteSpace=wrap;rounded=0;" parent="4WjZfDwvEFTE9s6ujMB4-1" vertex="1">
          <mxGeometry x="245" y="180" width="100" height="30" as="geometry" />
        </mxCell>
        <mxCell id="4WjZfDwvEFTE9s6ujMB4-21" value="RSA 2048" style="text;html=1;strokeColor=none;fillColor=none;align=center;verticalAlign=middle;whiteSpace=wrap;rounded=0;" parent="4WjZfDwvEFTE9s6ujMB4-1" vertex="1">
          <mxGeometry x="80" y="410" width="60" height="30" as="geometry" />
        </mxCell>
        <mxCell id="4WjZfDwvEFTE9s6ujMB4-15" value="RSA 2048" style="text;html=1;strokeColor=none;fillColor=none;align=center;verticalAlign=middle;whiteSpace=wrap;rounded=0;" parent="4WjZfDwvEFTE9s6ujMB4-1" vertex="1">
          <mxGeometry x="320" y="410" width="60" height="30" as="geometry" />
        </mxCell>
        <mxCell id="4WjZfDwvEFTE9s6ujMB4-22" value="Verify with issuer public key" style="text;html=1;strokeColor=none;fillColor=none;align=center;verticalAlign=middle;whiteSpace=wrap;rounded=0;" parent="4WjZfDwvEFTE9s6ujMB4-1" vertex="1">
          <mxGeometry x="290" y="470" width="160" height="30" as="geometry" />
        </mxCell>
        <mxCell id="4WjZfDwvEFTE9s6ujMB4-23" value="Encrypt shared secret with receiver&#39;s public key" style="text;html=1;strokeColor=none;fillColor=none;align=center;verticalAlign=middle;whiteSpace=wrap;rounded=0;" parent="4WjZfDwvEFTE9s6ujMB4-1" vertex="1">
          <mxGeometry x="50" y="470" width="170" height="30" as="geometry" />
        </mxCell>
        <mxCell id="89tiQ9NA3yXfcYq4EUNg-1" value="Open ID" style="text;html=1;strokeColor=none;fillColor=none;align=center;verticalAlign=middle;whiteSpace=wrap;rounded=0;" vertex="1" parent="4WjZfDwvEFTE9s6ujMB4-1">
          <mxGeometry x="380" y="350" width="60" height="30" as="geometry" />
        </mxCell>
        <mxCell id="89tiQ9NA3yXfcYq4EUNg-2" value="Vaccine passport" style="text;html=1;strokeColor=none;fillColor=none;align=center;verticalAlign=middle;whiteSpace=wrap;rounded=0;" vertex="1" parent="4WjZfDwvEFTE9s6ujMB4-1">
          <mxGeometry x="380" y="380" width="60" height="30" as="geometry" />
        </mxCell>
        <mxCell id="4WjZfDwvEFTE9s6ujMB4-2" value="" style="endArrow=none;html=1;rounded=0;entryX=1;entryY=0.25;entryDx=0;entryDy=0;exitX=0;exitY=0.25;exitDx=0;exitDy=0;" parent="1" edge="1">
          <mxGeometry width="50" height="50" relative="1" as="geometry">
            <mxPoint x="140" y="275" as="sourcePoint" />
            <mxPoint x="600" y="275" as="targetPoint" />
          </mxGeometry>
        </mxCell>
        <mxCell id="4WjZfDwvEFTE9s6ujMB4-3" value="" style="endArrow=none;html=1;rounded=0;entryX=1;entryY=0.75;entryDx=0;entryDy=0;exitX=0;exitY=0.75;exitDx=0;exitDy=0;" parent="1" edge="1">
          <mxGeometry width="50" height="50" relative="1" as="geometry">
            <mxPoint x="140" y="444" as="sourcePoint" />
            <mxPoint x="600" y="444" as="targetPoint" />
          </mxGeometry>
        </mxCell>
        <mxCell id="4WjZfDwvEFTE9s6ujMB4-4" value="" style="endArrow=none;html=1;rounded=0;entryX=0.5;entryY=0;entryDx=0;entryDy=0;exitX=0.5;exitY=1;exitDx=0;exitDy=0;" parent="1" source="4WjZfDwvEFTE9s6ujMB4-1" target="4WjZfDwvEFTE9s6ujMB4-1" edge="1">
          <mxGeometry width="50" height="50" relative="1" as="geometry">
            <mxPoint x="350" y="180" as="sourcePoint" />
            <mxPoint x="400" y="130" as="targetPoint" />
          </mxGeometry>
        </mxCell>
        <mxCell id="4WjZfDwvEFTE9s6ujMB4-5" value="No hash" style="text;html=1;strokeColor=none;fillColor=none;align=center;verticalAlign=middle;whiteSpace=wrap;rounded=0;" parent="1" vertex="1">
          <mxGeometry x="230" y="80" width="60" height="30" as="geometry" />
        </mxCell>
        <mxCell id="4WjZfDwvEFTE9s6ujMB4-6" value="Hash" style="text;html=1;strokeColor=none;fillColor=none;align=center;verticalAlign=middle;whiteSpace=wrap;rounded=0;" parent="1" vertex="1">
          <mxGeometry x="460" y="80" width="60" height="30" as="geometry" />
        </mxCell>
        <mxCell id="4WjZfDwvEFTE9s6ujMB4-7" value="No encryption" style="text;html=1;strokeColor=none;fillColor=none;align=center;verticalAlign=middle;whiteSpace=wrap;rounded=0;" parent="1" vertex="1">
          <mxGeometry x="20" y="180" width="110" height="30" as="geometry" />
        </mxCell>
        <mxCell id="4WjZfDwvEFTE9s6ujMB4-8" value="Symmetric encryption" style="text;html=1;strokeColor=none;fillColor=none;align=center;verticalAlign=middle;whiteSpace=wrap;rounded=0;" parent="1" vertex="1">
          <mxGeometry x="20" y="345" width="110" height="30" as="geometry" />
        </mxCell>
        <mxCell id="4WjZfDwvEFTE9s6ujMB4-9" value="Asymmetric encryption" style="text;html=1;strokeColor=none;fillColor=none;align=center;verticalAlign=middle;whiteSpace=wrap;rounded=0;" parent="1" vertex="1">
          <mxGeometry x="20" y="520" width="110" height="30" as="geometry" />
        </mxCell>
        <mxCell id="4WjZfDwvEFTE9s6ujMB4-24" value="TLS/SSL:&lt;br&gt;RSA for shared secret exchange&lt;br&gt;symmetric encryption for subsequent requests" style="text;html=1;strokeColor=none;fillColor=none;align=left;verticalAlign=middle;whiteSpace=wrap;rounded=0;" parent="1" vertex="1">
          <mxGeometry x="150" y="630" width="270" height="30" as="geometry" />
        </mxCell>
      </root>
    </mxGraphModel>
  </diagram>
</mxfile>
